<svg width="512" height="512" viewBox="0 0 512 512" fill="none" xmlns="http://www.w3.org/2000/svg">
<path d="M189.439 213.748C196.052 216.687 203.5 211.847 203.5 204.61V31.8454C203.5 24.2548 211.625 19.4317 218.289 23.0665L445.789 147.157C449.001 148.91 451 152.277 451 155.936V455C451 460.523 446.523 465 441 465H56C50.4771 465 46 460.523 46 455V165.387C46 158.151 53.4484 153.31 60.0613 156.249L189.439 213.748Z" fill="#16DB93"/>
<path d="M307.374 394.374C314.794 401.794 314.864 413.962 306.405 420.172C298.347 426.087 289.588 431.026 280.31 434.869C265.165 441.142 248.932 444.371 232.539 444.371C216.146 444.371 199.913 441.142 184.768 434.869C169.623 428.596 155.861 419.401 144.27 407.809C132.678 396.217 123.483 382.456 117.209 367.31C110.936 352.165 107.707 335.932 107.707 319.539C107.707 303.146 110.936 286.913 117.209 271.768C121.052 262.49 125.992 253.732 131.907 245.673C138.116 237.214 150.285 237.285 157.705 244.705L232.539 319.539L307.374 394.374Z" fill="#EFEA5A"/>
<path d="M214.705 244.705C207.285 237.285 207.214 225.116 215.673 218.907C223.732 212.992 232.49 208.052 241.768 204.209C256.913 197.936 273.146 194.707 289.539 194.707C305.932 194.707 322.165 197.936 337.31 204.209C352.456 210.483 366.217 219.678 377.809 231.27C389.401 242.861 398.596 256.623 404.869 271.768C411.142 286.913 414.371 303.146 414.371 319.539C414.371 335.932 411.142 352.165 404.869 367.31C401.026 376.588 396.087 385.347 390.172 393.405C383.962 401.864 371.794 401.794 364.374 394.374L289.539 319.539L214.705 244.705Z" fill="#10A26D"/>
</svg>
